<?xml version="1.0" encoding="UTF-8"?>
<svg version="1.1" viewBox="0 0 1024 1024" width="1280" height="1280" xmlns="http://www.w3.org/2000/svg">
<path transform="translate(0)" d="m0 0h1024v1024h-1024z" fill="#011424"/>
<path transform="translate(507,315)" d="m0 0h21l27 2 32 5 36 9 24 8 26 11 25 12 21 11 25 15 17 11 16 11 16 12 21 16 10 8 16 13 14 11 16 13 11 9 17 14 6 5-2 4-7 7-22 18-13 11-14 11-17 14-14 11-11 9-13 10-16 12-16 11-15 10-18 11-17 10-31 15-30 12-29 9-25 6-24 4-30 3h-47l-23-2-36-6-28-7-20-6-28-11-30-14-20-11-23-15-14-9-17-12-16-12-14-11-17-13-13-11-14-11-11-9-13-11-22-18-7-7 6-7 14-12 11-9 13-11 14-11 17-14 14-11 13-10 16-12 18-13 15-10 21-13 19-11 17-9 26-12 28-11 26-8 30-7 32-5z" fill="#011424"/>
<path transform="translate(511,70)" d="m0 0h10l8 5 4 5 1 4v7h10l30 4 28 5 24 6 33 11 21 9 25 12 18 10 19 12 17 12 13 10 11 9 11 10 2 1-1 4-4 6-4-2-13-11-14-11-17-12-15-10-26-15-15-8-20-9-23-9-26-8-26-6-41-7h-3l13 11 13 10 12 9 11 8 4 2 5-1 18-14 4 1v2l3-1 10 7 9 5 20 13 16 10 23 15 24 15 21 13 19 11 12 3 1 3 10-2 3 1v-9l3-6 5-3h8l5 3 3 5v9l-6 7-2 1h-7l-3-1 2 4v11l-2 3 1 5 9 17 12 22 10 19 11 20 9 20 2 4v3h2l1-5 11-28-1-6-12-21-12-19-13-18-13-16-5-7 5-5 4-2 7 8 11 13 12 17 11 17 12 21 8 16 10 21 11 29 7 23 7 29 6 34 2 18v9h-11l-5-37-8-39-7-25-9-25-10-24-3-5-8 21-4 10 1 7 11 23 12 23 8 3 3 4v8l-4 5-5 1 1 2 3 37v13l-4-1-1-1-4-45v-6l-5-2v-2l-17 9-10 6-8 4h-4v-4l25-14 11-6-5-4-14-8-12-7-3 10-8 23-2 1-3-2 1-7 9-25-1-5-22-15-10-7-2 1-1 36-5-2-1-33-8-6-2-5-35 1-4 4h-7l-5-4-1-2v-6l5-5h3l3-10 14-37 3-8v-4l-20-9-7 6-2 1h-9l-5-1-8 7-16 12-9 7 1 2v6l-3 5-2 1h-8l-5-6v-7l1-4-15-39-8-22v-3h-12l-13 25-10 19-8 15-5-1 1-5 15-29 12-22 3-6-11 7-23 14-19 12-2 1-2 9 7 15v2h-5l-4-7-3-6v-2l-6 1-5-2-16 10-8 1-2-2 9-6 15-9 1-7-8-17-10-19-17-34-5-1v93h-5l-1-1-1-91-5-1-2 6-13 25-20 40 1 5 1 4 5 2 17 11v1l-8 1-16-10v-2l-9 3h-2l-7 13-1 1h-5l2-6 5-10-2-10-22-13-22-14-10-7 1 4 12 22 13 25 4 7v4l-4 1-12-22-15-28-4-8v-2l-4 1h-8l-3 10-15 41-5 13 1 10-3 5-3 2h-7l-5-5v-7l1-3-4-2-14-10-16-13-13 1-7-4-4-3-19 9 2 9 18 47 4 4 4 3v8l-5 5h-7l-4-3v-2l-35 1-3 5-5 3h-3v33l-4 3h-2v-35l-3-1-33 22 2 9 8 23v5l-4 1-4-10-7-20-2-4-28 18-2 3 6 2 23 13 7 4v4l-6-1-26-14-5-3h-2l-3 4h-2l-1 23-2 24-1 4-5 1v-11l3-38 1-3-5-2-3-3v-9l4-5 7-1 2-6 21-42 1-4-10-27-3-7-9 20-8 21-8 26-8 32-5 29-3 26-1 2h-10l-1-4 4-34 6-31 9-34 10-29 12-27 10-20 11-19 11-17 12-17 13-16 6-7h3l4 4 2 1-1 4-13 16-11 15-10 15-12 20-8 15 1 7 10 26 2 3 8-19 8-16 18-34 10-18 11-19-1-4-2-4v-8l2-4h-10l-6-5-2-3v-9l3-5 5-3h8l6 4 2 4v8l-1 2 7-1 8 2 1-3 12-4 21-12 17-11 16-10 25-16 22-14 24-15 4-3 5-2 5-4 5-2 4-1 14 11 5 4h6l17-13 14-11 16-13 5-3-17 2-37 7-26 7-27 9-26 11-28 14-22 13-16 11-15 11-14 11-11 10-5 3-5-8 2-4 7-7 11-9 14-11 14-10 20-13 22-12 15-8 28-12 20-7 22-7 29-7 37-6 21-2 2-10 4-6z" fill="#FBFCF3"/>
<path transform="translate(135,536)" d="m0 0 5 1 1 2 4 43 2 6 3 3 5-2 26-14 7-1 1 3-23 13-13 7v2l18 11 11 7 4-9 9-24 4 1 1 4-10 28 1 5 14 9 15 10h6v-34l5 2 1 1 1 30 7 4 4 7h34l3-3h8l5 5 1 4-2 5-5 3h-2l-3 10-10 24-8 22 5 2 13 7h4l7-5h11l5 1 8-7 13-10 12-9-1-8 2-4 3-2h7l5 4 1 7-1 7 11 27 13 35 11 1 6-12 10-18 13-24 2-3 5 1-1 5-16 29-14 25 11-7 16-10 23-14 5-2 1-11-6-11v-2h5l5 8 1 5 6-1 3 2 4-1 14-8h9l-4 4-18 11h-2l1 9 34 68 5-1 1-89 5-1 1 1 1 89 5 2 2-6 11-22 11-23 10-19v-6l-3-3-16-10-5-4 7-1 17 10 4-1 8-1 5-10 2-2h4l-1 6-4 7v11l5 2 19 12 23 14 8 6-8-16-14-26-9-16 1-3 5 1 13 24 10 18 7 13h12l3-10 13-34 8-19-1-11 4-5 8-1 5 4 1 7-1 4 11 8 16 12 6 5 3-1h12l7 5v2l16-9 6-3-3-10-12-30-6-14-6-4-2-2v-6l2-4 6-3 5 1 4 3h34l4-7 6-4h2v-31l5-2 1 3v31l6-1 11-7 15-10 4-3-2-9-9-23 2-4h3l12 31v2l23-14 6-4h2v-3l-4-1-30-16-3-2 2-4 10 4 24 13h4l4-3 4-46 2-5h4l-1 21-2 25-1 5 4 1 4 4v8l-2 4-6 3h-4l-1 4-13 25-9 17 1 5 10 26 2 5 9-20 9-24 6-19 7-27 7-38 3-21 5-1 6 1-1 17-5 31-6 27-8 28-7 20-10 23-13 27-13 22-14 21-9 12-11 14-6 7-4-1-6-4 3-5 12-15 12-17 12-18 9-15 9-17-9-24-5-11-7 15-11 23-17 33-12 22-8 14v4l2 5v9l-1 3 7-1 6 3 4 5 1 7-4 8-5 3h-7l-5-3-4-6v-6-3l-7 1-8-3-4-7v-10l1-4-18-13-16-12-4 2-5 4-5 1v42h33l11-1 8-1v4l-12 4-29 17-22 14-20 13-16 10-40 26-2 2-7 3-5 4-8 2-12-9-6-5-4-1-7 3-11 9-13 10-16 13-5 5 35-6 27-6 26-8 24-9 18-8 25-12 19-11 27-18 18-14 11-9 9-8 3 1 4 6v3l-12 11-14 11-16 12-21 14-22 13-19 10-31 13-28 10-21 6-22 5-38 6-18 2-1 10-4 6-5 4-9 2-9-3-7-8-1-3v-9h-10l-30-4-31-6-26-7-24-8-29-12-17-8-22-12-18-11-20-14-13-10-13-11-8-7-2-2 1-4 4-6 8 6 13 11 13 10 17 12 21 13 18 10 24 12 27 11 27 9 28 7 38 7 9 2v-2l-4-2-16-13-20-15-11-8h-6l-13 10-7 5h-2l-2-3-5-1-6-5-6-2v-2l-5-2-23-15-16-10-23-15-24-15-21-13-16-9-11-4 1-4 17 2 34 1v-42l-8-4-4-4-4 2-15 11-14 10-3 4 2 9-3 8-5 4-9 1-4-2 1 10-3 5-5 4h-8l-7-6-2-7 2-6 4-5 5-2h6l2 1-2-4v-9l4-6-6-10-14-26-17-32-11-22-7-16-1-4h-2l-1 6-11 28 1 5 10 19 14 22 10 14 12 16 8 10v3l-7 5h-2l-9-11-12-15-16-24-12-20-14-27-12-28-12-35-8-32-6-34-2-16v-7l1-1h10l7 44 7 31 8 27 10 27 9 21 5-11 9-23-3-7-14-27-8-14-7-2-3-4-1-7 4-6 5-1-1-2-4-43z" fill="#FAFBF2"/>
<path transform="translate(507,315)" d="m0 0h21l27 2 32 5 36 9 24 8 26 11 25 12 21 11 25 15 17 11 16 11 16 12 21 16 10 8 16 13 14 11 16 13 11 9 17 14 6 5-2 4-7 7-22 18-13 11-14 11-17 14-14 11-11 9-13 10-16 12-16 11-15 10-18 11-17 10-31 15-30 12-29 9-25 6-24 4-30 3h-47l-23-2-36-6-28-7-20-6-28-11-30-14-20-11-23-15-14-9-17-12-16-12-14-11-17-13-13-11-14-11-11-9-13-11-22-18-7-7 6-7 14-12 11-9 13-11 14-11 17-14 14-11 13-10 16-12 18-13 15-10 21-13 19-11 17-9 26-12 28-11 26-8 30-7 32-5zm0 36-27 2-32 5-25 6-30 10-29 12-17 8-22 12-20 12-21 14-14 10-19 14-12 9-17 13-21 16-14 11-8 7 1 3 11 9 43 33 38 28 18 13 23 15 19 11 27 14 26 12 5 1-2-4-3-1-2-4-7-7-9-11-9-13-8-14-7-15-7-21-4-17-2-16v-32l3-21 6-23 9-21 8-14 10-14 8-6 9-4 1-3 14-7 36-12 5-1-16 11-16 15-11 12-11 15-13 25-8 24-4 25v28l4 24 6 20 9 20 8 14 13 16 11 12 11 9 13 9 16 9 19 7 16 4 14 2h32l18-3 20-6 18-8 19-12 15-13 8-8 11-14 9-14 8-16 7-19 5-21 2-21-1-23-5-25-6-18-8-17-11-17-8-10-9-10-8-8-14-11-10-7 15 4 20 7 18 8 5 5 13 7 14 19 9 17 7 19 5 19 3 18v39l-4 23-6 20-9 21-8 14-12 17-12 14-8 8v2l6-2 20-9 26-13 24-14 33-22 18-13 20-15 13-10 18-14 17-13 15-12-1-3-11-9-21-16-20-15-18-14-19-14-36-24-18-11-22-12-24-12-19-8-22-8-24-7-31-6-25-3-17-1z" fill="#FBFCF3"/>
<path transform="translate(507,398)" d="m0 0h18l18 3 12 4 16 8 11 8 10 9 7 7 11 16 9 19 4 16 2 16v14l-2 15-4 15-7 16-8 13-8 10-9 9-15 11-19 9-14 4-13 2h-21l-17-3-15-5-17-9-13-10-11-11-9-13-9-17-6-21-2-15v-14l2-17 6-20 8-16 8-11 9-10 7-7 11-8 12-7 16-6 14-3z" fill="#FBFCF3"/>
<path transform="translate(512,448)" d="m0 0h8l15 3 14 7 12 11 7 10 5 12 2 10v18l-3 12-6 12-8 10-11 9-13 6-8 2h-21l-13-4-12-7-10-9-8-12-4-11-2-11v-13l3-14 2-6 7 6 8 4h7l8-4 4-4 2-6v-7l-4-8-8-5 1-3 11-5z" fill="#011424"/>
<path transform="translate(507,398)" d="m0 0h18l18 3 12 4 16 8 11 8 10 9 7 7 11 16 9 19 4 16 2 16v14l-2 15-4 15-7 16-8 13-8 10-9 9-15 11-19 9-14 4-13 2h-21l-17-3-15-5-17-9-13-10-11-11-9-13-9-17-6-21-2-15v-14l2-17 6-20 8-16 8-11 9-10 7-7 11-8 12-7 16-6 14-3zm-3 15-17 4-13 5-10 6-13 10-10 11-9 14-7 17-3 14-1 8v16l3 18 6 16 6 11 11 14 7 7 11 8 15 8 17 5 6 1h25l17-4 15-6 12-8 10-9 7-7 7-10 8-16 4-13 2-10v-25l-3-14-6-17-9-15-9-11-10-9-14-9-16-7-15-3z" fill="#FBFCF3"/>
<path transform="translate(500,834)" d="m0 0 7 5 6 2v73h6v-73l12-6 27 16 29 17 7 4h1v5l-20 15-14 11-16 13-11 9-4 2-5-4-4-2h-10l-6 3-3 3-4-1-10-9-11-9-18-14-19-14-5-4v-2l19-12 27-16 18-11z" fill="#011424"/>
<path transform="translate(499,97)" d="m0 0 4 2 5 4 3 1h10l7-4 3-3 10 9 28 22 19 14 8 6-1 3-26 15-22 12-15 9h-4l-9-5v-70h-6v70l-10 5h-4l-24-13-23-13-16-10v-3l14-11 18-14 14-11 16-13z" fill="#011424"/>
<path transform="translate(331,412)" d="m0 0h2l-2 6-8 15-17 41-11 29 4 8-1 10-3 4 1 4 17 41 11 24 9 17 2 5-10-5-7-7-8-10-11-13-6-7-7-1-2-5-5-2-19-10-5-3-9-2-3-5-16-8-24-14-8-6 1-3 5 1 21 12 16 9 5 2h7l2 1v-2l8-7 9-8-1-5v-8l1-5-17-17-9-2-23 12-20 11h-5l2-4 20-12 24-13h2l2-5 1-1 10-2 26-14h2l2-5 7-1 7-7 9-11 11-13 5-5z" fill="#FBFCF3"/>
<path transform="translate(697,412)" d="m0 0 5 2 6 4 12 14 7 8 9 10 2 2 7 1 5 6 12 6 16 9h7l2 2 1 4 15 8 23 13 9 6-1 3-5-1-29-15-12-7-9 1-17 17 1 4v14l14 14 9 3 16-8 25-14 4-2 5 1-5 5-22 13-20 11-5 6h-6l-22 12-6 3h-2l-2 6-9 2-9 11-4 5-5 5-9 11-7 6-7 3 2-5 10-18 13-29 12-29 3-7-1-4-2-4v-11l3-5-1-6-16-38-10-24-12-23z" fill="#FBFCF3"/>
<path transform="translate(504,413)" d="m0 0h24l18 4 17 8 12 9 10 9 9 12 7 12 6 17 3 14v25l-4 17-6 15-8 13-11 12-10 9-15 9-18 6-10 2h-25l-14-3-13-5-14-8-11-9-10-11-9-14-6-14-4-16-1-8v-16l3-18 6-17 7-12 7-9 9-10 14-10 14-7 17-5zm3 8-15 3-13 5-12 7-12 11-5 5-8 11-8 17-4 17-1 15 2 17 5 16 8 15 8 10 9 9 14 9 11 5 9 3 12 2h16l16-3 13-5 11-6 11-9 8-8 7-10 7-14 4-13 2-13v-13l-2-14-6-18-8-14-9-11-10-9-11-7-13-6-18-4z" fill="#011424"/>
<path transform="translate(512,439)" d="m0 0h9l15 3 16 8 10 8 8 9 8 14 4 13 1 5v23l-5 16-6 11-7 9-10 9-10 6-15 5-5 1h-18l-16-4-15-8-12-11-9-14-5-13-2-10v-17l3-14 4-9 5-13 6-7 20-13 14-5zm0 9-15 3-12 6v2l8 5 4 8v7l-3 7-6 5-5 2h-7l-8-4-5-5-2-1-4 13-1 7v13l3 14 4 10 9 12 9 8 16 8 8 2h21l13-4 11-6 11-10 9-14 4-11 1-6v-18l-3-13-7-14-11-12-10-7-12-5-12-2z" fill="#FBFCF3"/>
<path transform="translate(499,204)" d="m0 0 4 4-1 5-21 41-14 28h-7l-5 1-17-11-17-10-18-12-2-1 2-14 51-16 32-10z" fill="#011424"/>
<path transform="translate(456,740)" d="m0 0 5 2h6l29 58 7 13-3 6-11-3-47-15-39-13-1-10-1-3 14-9 19-12 15-9z" fill="#011424"/>
<path transform="translate(530,205)" d="m0 0 6 1 27 9 61 19 5 1v14l-23 15-20 12-11 7-11-1-11-23-10-20-12-22-3-6 1-4z" fill="#011424"/>
<path transform="translate(573,741)" d="m0 0 5 2 20 12 19 12 9 6 4 1-1 13-8 3-55 18-32 10h-4l-1-6 14-27 20-40 1-3h7z" fill="#011424"/>
<path transform="translate(628,792)" d="m0 0 5 1 4 4-2 6-20 39-11 23-2 3-10-2-14-8-22-13-20-12-4-3v-7l64-20z" fill="#011424"/>
<path transform="translate(595,156)" d="m0 0h7l17 35 8 16 10 18-6 7-9-3-79-25-11-4v-8l24-14 24-13z" fill="#011424"/>
<path transform="translate(509,431)" d="m0 0h15l14 3 12 5 11 7 11 10 9 12 6 13 4 15 1 8v13l-3 16-5 13-7 11-9 10-8 7-12 7-15 5-13 2-16-1-16-4-14-7-13-11-11-14-7-15-3-13-1-16 2-16 5-15 9-15 11-12 10-7 15-7 11-3zm3 8-16 3-12 5-12 8-9 7-4 7-4 10-5 12-2 11v17l4 16 7 14 8 10 9 8 15 8 16 4h18l15-4 12-6 10-8 8-9 6-10 5-12 2-8v-23l-4-15-7-14-8-10-10-9-16-8-10-3-7-1z" fill="#011424"/>
<path transform="translate(400,792)" d="m0 0 5 1 35 12 55 17 4 1v8l-15 8-15 9-27 16-7 4-5 1-36-72z" fill="#011424"/>
<path transform="translate(434,156)" d="m0 0h2v2l6 2 21 12 25 14 11 6v8l-24 8-26 8-38 12-10 4-6-5 2-6 18-35 14-29z" fill="#011424"/>
<path transform="translate(369,790)" d="m0 0h3l5 6 9 3h4l32 64 3 8-1 4-9 8-10 7-5-2-8-9-14-24-18-33-14-24v-2z" fill="#011424"/>
<path transform="translate(659,791)" d="m0 0 23 4 3 1-1 4-13 24-12 21-15 26-8 13-5 4h-2l-1 3-6-4-10-8-4-3v-2h-2l1-5 16-33 14-27 5-10 9-1 5-2 2-4z" fill="#011424"/>
<path transform="translate(403,134)" d="m0 0 7 4 12 10 3 2-1 8-17 34-10 19-7 13-11 2-7 6-13-2-12-2 2-5 14-25 14-24 16-29 7-8z" fill="#011424"/>
<path transform="translate(627,134)" d="m0 0 8 6 14 25 14 24 15 26 6 10v2l-13 3-12 2-7-6-11-2-18-36-9-17-8-18 1-4 18-14z" fill="#011424"/>
<path transform="translate(384,147)" d="m0 0h2l-2 5-15 27-14 24-13 22-1 1h-7l-27-5-4-2-1-2h-4v3h-28v-2l10-5 22-14 16-10 44-28 19-12z" fill="#011424"/>
<path transform="translate(332,798)" d="m0 0h8l6 9 16 28 14 25 9 15-1 3-13-9-11-7-17-11-44-28-21-13-9-5v-1h29l1 2h4l1-3z" fill="#011424"/>
<path transform="translate(645,147)" d="m0 0 5 2 15 10 24 15 17 11 22 14 26 16 8 4v1h-29l-1-3h-5v3l-20 4-17 2-13-22-16-28-14-24z" fill="#011424"/>
<path transform="translate(691,798)" d="m0 0h8l27 5 3 4h2l2-3h29l-4 3-14 8-19 12-25 16-20 13-25 16-7 5-2-1 10-17 8-14 14-25z" fill="#011424"/>
<path transform="translate(346,704)" d="m0 0h7l9 21 13 35 3 9-4 4-3 5-21-9-28-13-9-5 1-6v-10l-2-4 13-11 12-9z" fill="#011424"/>
<path transform="translate(370,246)" d="m0 0 4 4 3 4-1 6-10 27-12 31-4 3-6-2-15-12-16-12v-4l2-9-2-9 17-9 20-9 19-8z" fill="#011424"/>
<path transform="translate(680,703)" d="m0 0 8 3 11 9 12 9 7 6-1 5v10l1 5-8 5-26 12-22 10h-3l-3-6-2-1 1-5 13-36 10-24z" fill="#011424"/>
<path transform="translate(659,247)" d="m0 0 9 3 47 21 3 2-1 4v11l2 4v3l-11 8-19 14-8 4-3-3-12-30-12-32 2-4z" fill="#011424"/>
<path transform="translate(842,681)" d="m0 0h2l-1 5-14 28-12 22-14 26-4 7h-7l-3-5-14-38v-5l23-13 5-2v2h4l1-5 15-10 15-9z" fill="#011424"/>
<path transform="translate(187,682)" d="m0 0 4 1 19 12 13 8 1 5 7-1 23 13 3 2-2 9-13 34-1 3-9 1-15-29-12-22-17-32z" fill="#011424"/>
<path transform="translate(807,321)" d="m0 0 14 8 19 11 6 3 11 22-2 8-10 26-5-2-20-14-8-6 1-10-4-7-2-1z" fill="#011424"/>
<path transform="translate(223,321)" d="m0 0 2 1v36l-5 4-1 2v14l-11 7-17 11-4 2-4-8-8-22 1-6 8-18 23-13z" fill="#011424"/>
<path transform="translate(791,253)" d="m0 0h9l8 16 11 20 7 14 13 23 4 8v2l-4-1-17-10-14-9-2-4-6 1-23-12-3-2 3-10 13-34z" fill="#011424"/>
<path transform="translate(232,253)" d="m0 0h9l16 42v4l-28 14-4-1-2 4-15 9-18 11-2-1 8-16 13-23 9-17 12-22z" fill="#011424"/>
<path transform="translate(186,626)" d="m0 0 5 2 27 18v7l2 6 5 5v34l-5-2-25-15-11-6-6-12-3-7 1-7 9-22z" fill="#011424"/>
<path transform="translate(844,625)" d="m0 0h2l10 25 1 5-9 19-12 6-21 13-8 5v-34l5-6 1-8 1-5 15-10z" fill="#011424"/>
<path transform="translate(733,225)" d="m0 0h40l11 2-2 5-1 2v8l2 6-12 10-18 13-4 3h-2v2h-2l-5-6-7-3-1-39z" fill="#011424"/>
<path transform="translate(259,225)" d="m0 0h39v42l-9 4-3 4-4-2-11-8-14-10-8-6 2-7-1-9-2-5 5-2z" fill="#011424"/>
<path transform="translate(257,304)" d="m0 0h3l8 22-6 8-13 15-8 9-1 2-9-2-1-1v-38l10-6z" fill="#011424"/>
<path transform="translate(772,304)" d="m0 0 19 9 10 5v39l-9 3-18-20-8-10-2-2 2-10 5-13z" fill="#011424"/>
<path transform="translate(237,663)" d="m0 0h2l8 10 8 8 9 11 1 3h2l-2 9-5 13-7-2-22-13-1-1v-35z" fill="#011424"/>
<path transform="translate(792,663)" d="m0 0 10 2v33l-2 4-20 11-5 3-4-1-7-18 6-8 10-11 9-11z" fill="#011424"/>
<path transform="translate(926,494)" d="m0 0 10 2 6 5 3 6 1 7-3 9-5 5-7 3h-8l-8-4-5-7-1-3v-9l3-6 7-6z" fill="#FBFCF3"/>
<path transform="translate(98,495)" d="m0 0h12l7 4 5 8v11l-3 6-7 6-3 1h-9l-8-4-4-5-2-5v-9l4-8 5-4z" fill="#FBFCF3"/>
<path transform="translate(304,225)" d="m0 0 33 6-2 5-11 16-9 13-4 5-7-2z" fill="#011424"/>
<path transform="translate(720,226)" d="m0 0h7v42l-7 2-9-12-13-20-3-5v-2z" fill="#011424"/>
<path transform="translate(307,754)" d="m0 0 5 1 19 28 6 9v1l-30 5h-3v-42z" fill="#011424"/>
<path transform="translate(720,754)" d="m0 0 6 1 1 1v42l-21-3-10-2 1-5 7-10 11-17z" fill="#011424"/>
<path transform="translate(768,724)" d="m0 0 3 4 15 40-1 3-18-14-14-10-6-5v-6z" fill="#011424"/>
<path transform="translate(269,333)" d="m0 0 3 3 8 21 1 4-4 6h-34l-1-3 9-11 12-13z" fill="#011424"/>
<path transform="translate(761,333)" d="m0 0 4 2 11 13 9 10 4 5v4h-34l-5-7 9-23z" fill="#011424"/>
<path transform="translate(242,657)" d="m0 0h35l4 6-3 9-8 19-5-4-9-11-14-15z" fill="#011424"/>
<path transform="translate(262,725)" d="m0 0 16 8 5 3 1 6-5 5-18 13-12 9-4 2 6-18z" fill="#011424"/>
<path transform="translate(755,657)" d="m0 0h34l1 2-7 8-12 14-8 10-3-3-8-19-2-6z" fill="#011424"/>
<path transform="translate(860,373)" d="m0 0 3 4 8 16 12 23-1 5-5-1-23-14-4-3 1-7 7-18z" fill="#011424"/>
<path transform="translate(170,373)" d="m0 0h2l10 27v2l-26 16-5 3-3-1 1-5 11-22 9-17z" fill="#011424"/>
<path transform="translate(246,252)" d="m0 0 8 6 13 10 16 11 1 8-15 7-4 2h-3l-15-40z" fill="#011424"/>
<path transform="translate(785,252)" d="m0 0 1 2-10 25-7 17-5-1-16-8-1-3 2-5 14-10 16-12z" fill="#011424"/>
<path transform="translate(285,463)" d="m0 0h1l-1 14-4 22-5 2-4-1-6-5-7-8-4-4 1-4 22-12z" fill="#011424"/>
<path transform="translate(745,464)" d="m0 0 6 2 19 10 6 4-1 4-17 17-7-2-5-24z" fill="#011424"/>
<path transform="translate(686,232)" d="m0 0 3 1 15 22 4 6-1 2-26-12-19-8-1-1v-6z" fill="#011424"/>
<path transform="translate(880,603)" d="m0 0h3l-1 6-14 27-6 12h-2l-5-13-4-11 2-4 13-8z" fill="#011424"/>
<path transform="translate(273,527)" d="m0 0 5 2 3 2 5 24v7l-6-2-20-11-5-5 16-16z" fill="#011424"/>
<path transform="translate(708,760)" d="m0 0 1 2-13 20-6 9-11-1-18-4v-4l35-16z" fill="#011424"/>
<path transform="translate(148,604)" d="m0 0 5 1 23 14 5 5-8 21-1 2h-2l-15-28-7-12z" fill="#011424"/>
<path transform="translate(543,462)" d="m0 0h7l6 4 3 4v10l-4 6-4 2h-10l-6-4-3-7 2-9 6-5z" fill="#FBFCF3"/>
<path transform="translate(757,527)" d="m0 0 4 2 10 10 2 1v2l3 1v3l-21 12-6 3h-3l4-29z" fill="#011424"/>
<path transform="translate(343,232)" d="m0 0 27 4v5l-14 7-29 13-3 1 2-5 13-19z" fill="#011424"/>
<path transform="translate(323,762)" d="m0 0 4 1 32 15 10 4 1 4-23 5h-5l-9-13-10-15z" fill="#011424"/>
<path transform="translate(721,448)" d="m0 0 5 2 10 9 3 8 6 28v5l-4-1-11-28-8-19z" fill="#011424"/>
<path transform="translate(741,529)" d="m0 0 4 1-1 8-5 24-3 6-8 8-5 4-2-1 11-27z" fill="#011424"/>
<path transform="translate(308,448)" d="m0 0h2l-3 9-12 29-5 14h-3l1-10 5-27 4-6z" fill="#011424"/>
<path transform="translate(287,529)" d="m0 0h3l16 39 4 9-1 4-15-15-7-33z" fill="#011424"/>
</svg>
